<?xml version="1.0" standalone="no"?>
<!DOCTYPE svg PUBLIC "-//W3C//DTD SVG 20010904//EN"
 "http://www.w3.org/TR/2001/REC-SVG-20010904/DTD/svg10.dtd">
<svg version="1.0" xmlns="http://www.w3.org/2000/svg"
 width="192.000000pt" height="192.000000pt" viewBox="0 0 192.000000 192.000000"
 preserveAspectRatio="xMidYMid meet">
<metadata>
Created by potrace 1.11, written by Peter Selinger 2001-2013
</metadata>
<g transform="translate(0.000000,192.000000) scale(0.100000,-0.100000)"
fill="#000000" stroke="none">
<path d="M775 1814 c-79 -17 -198 -66 -283 -116 -71 -42 -216 -184 -267 -262
-107 -165 -157 -374 -135 -570 42 -368 273 -643 635 -752 80 -24 106 -27 235
-27 129 0 155 3 235 27 221 67 384 186 501 366 93 144 136 295 137 475 1 252
-89 464 -271 636 -119 113 -270 192 -424 223 -96 20 -269 19 -363 0z m257
-461 l68 -67 0 -138 0 -137 138 -3 137 -3 0 -230 0 -230 -415 0 -415 0 0 320
0 320 138 3 137 3 0 47 c0 44 3 50 67 114 37 38 70 68 72 68 3 0 36 -30 73
-67z"/>
<path d="M920 1235 l0 -45 40 0 40 0 0 45 0 45 -40 0 -40 0 0 -45z"/>
<path d="M640 1050 l0 -40 45 0 45 0 0 40 0 40 -45 0 -45 0 0 -40z"/>
<path d="M920 1050 l0 -40 40 0 40 0 0 40 0 40 -40 0 -40 0 0 -40z"/>
<path d="M640 870 l0 -40 45 0 45 0 0 40 0 40 -45 0 -45 0 0 -40z"/>
<path d="M920 870 l0 -40 40 0 40 0 0 40 0 40 -40 0 -40 0 0 -40z"/>
<path d="M1190 870 l0 -40 45 0 45 0 0 40 0 40 -45 0 -45 0 0 -40z"/>
<path d="M640 685 l0 -45 45 0 45 0 0 45 0 45 -45 0 -45 0 0 -45z"/>
<path d="M920 685 l0 -45 40 0 40 0 0 45 0 45 -40 0 -40 0 0 -45z"/>
<path d="M1190 685 l0 -45 45 0 45 0 0 45 0 45 -45 0 -45 0 0 -45z"/>
</g>
</svg>
